<?xml version="1.0" encoding="utf-8"?>
<svg xmlns="http://www.w3.org/2000/svg" xmlns:xlink="http://www.w3.org/1999/xlink" version= "1.1" width="1073px" height="767px" viewBox="-177 328 1073 767">
<g id="layer1">
<g style="fill:rgb(0,174,199); fill-opacity:1.0; stroke-linejoin: miter">
<path d="M-177.00099,327.2518C-177.19917,327.2518,-177.38922,327.3305,-177.52936,327.47064C-177.6695,327.61078,-177.74823,327.80084,-177.74823,327.99902L-177.74722,1094.9999C-177.74722,1095.4127,-177.41267,1095.7472,-176.99998,1095.7472L896.0009,1095.7482C896.1991,1095.7482,896.38916,1095.6693,896.5293,1095.5292C896.66943,1095.389,896.74817,1095.1991,896.74817,1095.0009L896.7472,328.00003C896.7472,327.58734,896.4126,327.2528,895.99994,327.2528L-177.00099,327.2518 Z"/>
</g>
<g style="fill:rgb(0,174,199); fill-opacity:1.0; stroke-linejoin: miter">
<path d="M15.868239,387.28857L15.797347,387.29553L15.647475,739.5675L535.2712,739.6361L535.42096,387.3642L15.868239,387.28857 Z"/>
</g>
<g style="fill:rgb(255,255,255); fill-opacity:1.0; stroke-linejoin: miter">
<path d="M836.1482,660.7293L833.4602,700.6847Q814.3497,821.4334,721.6264,893.829Q628.2615,966.1662,501.73935,952.49445Q380.9905,933.3842,308.59482,840.66144Q285.39825,810.6891,270.3813,775.34467L257.75977,739.0076Q247.35843,701.5026,247.2414,660.7305Q250.39862,535.60657,333.4843,452.5207Q416.57007,369.43466,541.69434,366.27682Q666.8184,369.43414,749.90466,452.51962Q832.9907,535.6052,836.1482,660.7293 Z"/>
</g>
<g style="fill:rgb(255,255,255); fill-opacity:1.0; stroke-linejoin: miter">
<path d="M419.94397,692.23956L419.94397,692.24066L254.61714,857.6929Q364.55096,829.5489,474.48514,801.4048L419.94397,692.23956 Z"/>
</g>
<g style="fill:rgb(202,233,247); fill-opacity:1.0; stroke-linejoin: miter">
<path d="M89.29579,736.2467C86.402,736.2467,84.05678,732.95703,84.05678,728.89966L84.05674,692.00226C84.05673,687.9441,86.403046,684.6553,89.29586,684.6553C92.18916,684.6553,94.53462,687.9448,94.53464,692.00226L94.53467,728.8982C94.53528,732.95654,92.189224,736.2467,89.29579,736.2467 Z"/>
</g>
<g style="fill:rgb(99,112,121); fill-opacity:1.0; stroke-linejoin: miter">
<path d="M114.21805,673.93915C114.21806,687.7046,103.05928,698.8631,89.29453,698.8631C75.52941,698.8631,64.37073,687.7046,64.37072,673.93964C64.37071,660.1745,75.52986,649.01575,89.29449,649.01575C103.05923,649.01575,114.21803,660.1745,114.21805,673.93915 Z"/>
</g>
<g style="fill:rgb(99,112,121); fill-opacity:1.0; stroke-linejoin: miter">
<path d="M134.98799,725.1697L43.60406,725.17017C36.720158,725.1697,31.142647,730.7478,31.14265,737.6312L31.142654,747.3234L147.44969,747.3239L147.44968,737.6312C147.44965,730.7488,141.87007,725.1697,134.98799,725.1697 Z"/>
</g>
<g style="fill:rgb(35,31,32); fill-opacity:0.09803922; stroke-linejoin: miter">
<path d="M75.48423,673.93915C75.484215,662.08514,83.76239,652.171,94.851845,649.6456C93.064255,649.23816,91.20769,649.0165,89.296684,649.0165C75.531204,649.01624,64.3734,660.1745,64.373405,673.93964C64.37341,687.70435,75.53124,698.8626,89.2971,698.8631C91.20737,698.8631,93.0643,698.6402,94.85189,698.2332C83.761826,695.7066,75.48424,685.7932,75.48423,673.93915 Z"/>
</g>
<g style="fill:rgb(35,31,32); fill-opacity:0.09803922; stroke-linejoin: miter">
<path d="M54.71513,725.1697L43.60455,725.17017C36.720768,725.1697,31.143013,730.7478,31.143017,737.6312L31.14302,747.3234L42.25434,747.3239L42.254333,737.6312C42.25433,730.7488,47.831593,725.1697,54.71513,725.1697 Z"/>
</g>
<g style="fill:rgb(99,112,121); fill-opacity:1.0; stroke-linejoin: miter">
<path d="M117.21485,945.3062L53.64092,945.3072C46.759808,945.3062,41.178745,939.7264,41.17874,932.8449L41.17874,925.9223C41.178734,919.0401,46.75894,913.4605,53.640903,913.4605L124.94786,913.46124C131.83165,913.4605,137.40991,919.0401,137.40993,925.9223L137.4098,932.8449C137.40994,939.72687,131.83182,945.3062,124.94789,945.3062L117.21485,945.3072"/>
</g>
<g style="fill:rgb(35,31,32); fill-opacity:0.09803922; stroke-linejoin: miter">
<path d="M52.29008,932.8449L52.29008,925.9223C52.290073,919.0401,57.870277,913.4605,64.75213,913.4605L53.641514,913.46124C46.760162,913.4605,41.17959,919.0401,41.179596,925.9223L41.17935,932.8449C41.179356,939.72687,46.759808,945.3062,53.64153,945.3062L64.752144,945.3072C57.87005,945.3062,52.289845,939.72614,52.29008,932.8449 Z"/>
</g>
<g style="fill:rgb(99,112,121); fill-opacity:1.0; stroke-linejoin: miter">
<path d="M-22.236338,794.2224C-39.202213,794.3198,-52.928043,810.31964,-52.928062,830.04865C-52.928127,849.7785,-39.202545,865.77795,-22.236595,865.8763L-22.236338,794.2224 Z"/>
</g>
<g style="fill:rgb(99,112,121); fill-opacity:1.0; stroke-linejoin: miter">
<path d="M200.82938,794.2224C217.79337,794.3198,231.52104,810.31964,231.5211,830.0491C231.52138,849.77844,217.79352,865.7784,200.82953,865.8765L200.82938,794.2224 Z"/>
</g>
<g style="fill:rgb(246,253,255); fill-opacity:1.0; stroke-linejoin: miter">
<path d="M202.14151,746.62506L13.829926,746.62604L-3.6337426,746.62555L-23.550531,746.62604C-30.433033,746.62555,-36.012802,752.205,-36.01281,759.0869L-36.01323,902.3962C-36.013233,909.2791,-30.433392,914.858,-23.550879,914.8575L202.14151,914.8584C209.023,914.8574,214.60258,909.2781,214.60255,902.3956L214.60237,759.0869C214.60234,752.2045,209.02322,746.62506,202.14151,746.62506 Z"/>
</g>
<g style="fill:rgb(99,112,121); fill-opacity:1.0; stroke-linejoin: miter">
<path d="M46.370945,805.4722C46.37095,813.884,39.55235,820.70306,31.140728,820.70306C22.729229,820.70306,15.910261,813.88446,15.910259,805.4725C15.910255,797.06104,22.72922,790.24207,31.140717,790.24207C39.552334,790.24207,46.370937,797.0608,46.370945,805.4722 Z"/>
</g>
<g style="fill:rgb(99,112,121); fill-opacity:1.0; stroke-linejoin: miter">
<path d="M162.67924,805.47217C162.67926,813.88385,155.86069,820.70306,147.44894,820.70306C139.03745,820.70306,132.2187,813.88385,132.21869,805.47217C132.21869,797.0608,139.0374,790.24207,147.44888,790.2416C155.86026,790.24207,162.67924,797.0608,162.67924,805.47217 Z"/>
</g>
<g style="fill:rgb(35,31,32); fill-opacity:0.09803922; stroke-linejoin: miter">
<path d="M-42.926716,830.04865C-42.926464,815.88275,-37.291573,803.25275,-28.488531,794.9971C-42.44995,798.42334,-52.928047,812.8127,-52.928062,830.04865C-52.928066,847.28656,-42.450043,861.67535,-28.48886,865.1007C-37.291653,856.8455,-42.92672,844.216,-42.926716,830.04865 Z"/>
</g>
<g style="fill:rgb(35,31,32); fill-opacity:0.09803922; stroke-linejoin: miter">
<path d="M-24.90067,902.3957L-24.90033,759.0869C-24.900326,752.205,-19.32196,746.62506,-12.438239,746.62555L-23.550531,746.62604C-30.433033,746.62555,-36.012802,752.205,-36.01281,759.0869L-36.01323,902.3962C-36.013233,909.2791,-30.433392,914.858,-23.550879,914.8575L-12.439783,914.85846C-19.322357,914.8575,-24.900913,909.2781,-24.90067,902.3957 Z"/>
</g>
<g style="fill:rgb(35,31,32); fill-opacity:0.09803922; stroke-linejoin: miter">
<path d="M27.02256,805.47174C27.022556,799.0215,31.034641,793.5112,36.69784,791.29114C34.975918,790.6166,33.10397,790.2411,31.143158,790.2411C22.73044,790.2411,15.91172,797.0608,15.911724,805.47174C15.911726,813.8837,22.73045,820.70233,31.14317,820.70233C33.103985,820.70233,34.975933,820.32684,36.697857,819.6525C31.033794,817.4323,27.022808,811.92255,27.02256,805.47174 Z"/>
</g>
<g style="fill:rgb(35,31,32); fill-opacity:0.09803922; stroke-linejoin: miter">
<path d="M143.32977,805.4717C143.32977,799.021,147.34172,793.5112,153.00577,791.29114C151.28372,790.6166,149.41068,790.2411,147.44986,790.2411C139.03764,790.2411,132.2193,797.0603,132.2193,805.4717C132.21944,813.8831,139.03769,820.70233,147.44992,820.70233C149.4111,820.70233,151.28378,820.32684,153.00583,819.6525C147.34175,817.4322,143.32979,811.9224,143.32977,805.4717 Z"/>
</g>
</g>
</svg>